<?xml version="1.0" encoding="utf-8"?>
<!-- Generator: Adobe Illustrator 19.2.1, SVG Export Plug-In . SVG Version: 6.00 Build 0)  -->
<svg version="1.1" id="Layer_1" xmlns="http://www.w3.org/2000/svg" xmlns:xlink="http://www.w3.org/1999/xlink" x="0px" y="0px"
	 viewBox="0 0 26 40" style="enable-background:new 0 0 26 40;" xml:space="preserve">
<style type="text/css">
	.st0{fill-rule:evenodd;clip-rule:evenodd;fill:#262626;}
</style>
<g>
	<polygon class="st0" points="3.5,9.6 3.5,26.9 26,26.9 26,28 22.9,28 22.9,30.4 21.7,30.4 21.7,28 17.8,28 17.8,30.4 16.6,30.4 
		16.6,28 12.7,28 12.7,30.4 11.5,30.4 11.5,28 7.6,28 7.6,30.4 6.4,30.4 6.4,28 2.9,28 2.4,28 2.4,27.5 2.4,24.1 0,24.1 0,22.9 
		2.4,22.9 2.4,19 0,19 0,17.8 2.4,17.8 2.4,13.8 0,13.8 0,12.7 2.4,12.7 2.4,9.6 3.5,9.6 	"/>
	<g>
		<path d="M8.8,14.7c0-1.5,0.7-2.8,2.4-2.8c1.7,0,2.4,1.3,2.4,2.8s-0.7,2.8-2.4,2.8C9.5,17.5,8.8,16.2,8.8,14.7z M11.2,16.6
			c0.8,0,1.1-0.8,1.1-1.9c0-1-0.2-1.9-1.1-1.9c-0.9,0-1.1,1-1.1,1.9C10.1,15.7,10.4,16.6,11.2,16.6z M16.9,11.7H18l-5.5,10.7h-1.1
			L16.9,11.7z M16,19.4c0-1.5,0.7-2.8,2.4-2.8c1.7,0,2.4,1.3,2.4,2.8c0,1.5-0.7,2.8-2.4,2.8C16.6,22.2,16,20.9,16,19.4z M18.3,21.3
			c0.8,0,1.1-0.8,1.1-1.9c0-1-0.2-1.9-1.1-1.9c-0.9,0-1.1,1-1.1,1.9C17.3,20.4,17.6,21.3,18.3,21.3z"/>
	</g>
</g>
</svg>
