<?xml version="1.0" encoding="utf-8"?>
<!-- Generator: Adobe Illustrator 19.2.1, SVG Export Plug-In . SVG Version: 6.00 Build 0)  -->
<svg version="1.1" id="Layer_1" xmlns="http://www.w3.org/2000/svg" xmlns:xlink="http://www.w3.org/1999/xlink" x="0px" y="0px"
	 viewBox="0 0 26 40" style="enable-background:new 0 0 26 40;" xml:space="preserve">
<style type="text/css">
	.st0{fill:#262626;}
</style>
<g>
	<path class="st0" d="M3.6,9.6v17.3H26v1.2h-3.2v2.4h-1.2v-2.4h-4v2.4h-1.2v-2.4h-4v2.4h-1.2v-2.4h-4v2.4h-1v-2.4H3H2.4v-0.6v-3.4H0
		v-1.2h2.4v-4H0v-1.2h2.4v-4H0v-1.2h2.4V9.6H3.6L3.6,9.6z M6,23.5l0.9,0.7l5.5-7.7l4.6,3.4l0.5,0.3l0.3-0.5l4.8-6.6l0.2,3.3l1.2-0.1
		l-0.3-4.8v-0.7l-0.7,0.2l-4.7,1.3l0.3,1.1l3.2-0.8l-4.5,6.2l-4.6-3.4L12.2,15l-0.3,0.5L6,23.5z"/>
</g>
</svg>
